<svg xmlns="http://www.w3.org/2000/svg" width="24" height="24" viewBox="0 0 24 24" fill="currentColor"><path fill-rule="evenodd" clip-rule="evenodd" d="M17.657 6.343A8 8 0 1 0 6.343 17.657 8 8 0 0 0 17.657 6.343zM4.929 4.93c3.905-3.905 10.237-3.905 14.142 0 3.905 3.905 3.905 10.237 0 14.142-3.905 3.905-10.237 3.905-14.142 0-3.905-3.905-3.905-10.237 0-14.142z"></path><path fill-rule="evenodd" clip-rule="evenodd" d="M12 7a1 1 0 0 1 1 1v4a1 1 0 1 1-2 0V8a1 1 0 0 1 1-1zM12 15a1 1 0 1 1-1 1 1 1 0 0 1 1-1z"></path></svg>