<svg xmlns="http://www.w3.org/2000/svg" width="24" height="24" viewBox="0 0 24 24" fill="currentColor"><path fill-rule="evenodd" clip-rule="evenodd" d="M14.565 3.341l.003.005 8.47 14.14.008.014c1.115 1.931-.274 4.475-2.565 4.5H3.519c-2.23-.024-3.71-2.516-2.565-4.5l.008-.014L9.435 3.341c1.13-1.863 3.976-1.903 5.13 0zm-1.711 1.036c-.385-.632-1.33-.619-1.708 0L2.683 18.506c-.36.633.13 1.482.853 1.494h16.928c.728-.012 1.21-.865.853-1.494L12.855 4.379l-.001-.002z"></path><path fill-rule="evenodd" clip-rule="evenodd" d="M12 8a1 1 0 0 1 1 1v4a1 1 0 1 1-2 0V9a1 1 0 0 1 1-1zM12 16a1 1 0 0 1 1 1v.01a1 1 0 1 1-2 0V17a1 1 0 0 1 1-1z"></path></svg>