<svg xmlns="http://www.w3.org/2000/svg" width="24" height="24" viewBox="0 0 24 24" fill="currentColor"><path fill-rule="evenodd" clip-rule="evenodd" d="M14 6a2 2 0 1 1-4 0 2 2 0 0 1 4 0zm-1 3.874A4.002 4.002 0 0 0 12 2a4 4 0 0 0-1 7.874v9.697a10.218 10.218 0 0 1-1.902-1.112c-1.192-.888-2.36-2.2-2.854-4.13l.829.548a1 1 0 0 0 1.104-1.667l-3.4-2.254a.5.5 0 0 0-.777.417v.931c0 3.874 1.97 6.319 3.902 7.759.958.713 1.91 1.186 2.622 1.48.481.2.97.361 1.476.487a10.48 10.48 0 0 0 1.476-.486 12.306 12.306 0 0 0 2.622-1.481C18.029 18.623 20 16.178 20 12.304v-.93a.5.5 0 0 0-.776-.418l-3.401 2.254a1 1 0 0 0 1.104 1.667l.829-.549c-.493 1.931-1.662 3.243-2.854 4.131-.67.5-1.346.862-1.902 1.112V9.874z"></path></svg>