<svg xmlns="http://www.w3.org/2000/svg" width="24" height="24" viewBox="0 0 24 24" fill="currentColor"><path fill-rule="evenodd" clip-rule="evenodd" d="M12 21c-1.745 0-3-1.495-3-3h2c0 .495.453 1 1 1 .547 0 1-.505 1-1h2c0 1.505-1.255 3-3 3z"></path><path d="M19.707 17H20a1 1 0 0 0 1-1c0-.552-.47-.959-.977-1.18a1.724 1.724 0 0 1-.447-.283c-.324-.284-.583-.717-.774-1.309-.393-1.215-.402-2.763-.402-4.085 0-1.513-.529-3.05-1.619-4.218C15.677 3.742 14.055 3 12 3c-1.931 0-3.48.656-4.576 1.716l1.414 1.415C9.535 5.468 10.567 5 12 5c1.545 0 2.623.544 3.319 1.29.71.76 1.081 1.794 1.081 2.853v.064c0 1.248 0 3.093.498 4.636.06.186.13.372.208.556L19.707 17zM7.591 10.298c-.025 1.106-.122 2.407-.49 3.545A5.812 5.812 0 0 1 6.593 15h5.7l2 2H4a1 1 0 0 1-1-1c0-.552.47-.959.977-1.18.176-.077.322-.174.447-.283.324-.284.583-.717.774-1.309.393-1.215.402-2.763.402-4.085 0-.263.016-.526.048-.788l1.943 1.943z"></path><path fill-rule="evenodd" clip-rule="evenodd" d="M2.293 2.293a1 1 0 0 1 1.414 0l18 18a1 1 0 0 1-1.414 1.414l-18-18a1 1 0 0 1 0-1.414z"></path></svg>