<svg xmlns="http://www.w3.org/2000/svg" width="24" height="24" viewBox="0 0 24 24" fill="currentColor"><path fill-rule="evenodd" clip-rule="evenodd" d="M21 16c0-.552-.47-.959-.977-1.18a1.724 1.724 0 0 1-.447-.283c-.324-.284-.583-.717-.774-1.309-.393-1.215-.402-2.763-.402-4.085 0-1.513-.529-3.05-1.619-4.218C15.677 3.742 14.055 3 12 3c-2.055 0-3.677.742-4.781 1.925C6.129 6.093 5.6 7.63 5.6 9.143c0 1.322-.009 2.87-.402 4.085-.19.592-.45 1.026-.774 1.309a1.723 1.723 0 0 1-.447.283C3.47 15.041 3 15.448 3 16a1 1 0 0 0 1 1h16a1 1 0 0 0 1-1z"></path><path d="M14.817 19H9.183c.408 1.103 1.466 2 2.817 2 1.35 0 2.409-.897 2.817-2z"></path></svg>