<svg xmlns="http://www.w3.org/2000/svg" width="24" height="24" viewBox="0 0 24 24" fill="currentColor"><path fill-rule="evenodd" clip-rule="evenodd" d="M11 18a1 1 0 1 0 2 0h2a3 3 0 1 1-6 0h2zM12 5a4 4 0 0 0-4 4v2c0 1.773-.524 3.074-1.191 4H17.19C16.524 14.074 16 12.773 16 11V9a4 4 0 0 0-4-4zm8.317 10.052l.008.002h-.002l-.003-.001-.002-.001zm-16.642.002c.001 0 .003 0 .005-.002a2.756 2.756 0 0 0 .303-.145c.217-.12.513-.317.81-.614C5.368 13.718 6 12.717 6 11V9a6 6 0 1 1 12 0v2c0 1.717.632 2.718 1.207 3.293.297.297.593.494.81.614a2.76 2.76 0 0 0 .303.146l.005.001A1 1 0 0 1 20 17H4a1 1 0 0 1-.325-1.946zm.008-.002H3.68l-.003.002h-.003.001l.008-.002z"></path></svg>