<svg xmlns="http://www.w3.org/2000/svg" width="24" height="24" viewBox="0 0 24 24" fill="currentColor"><path fill-rule="evenodd" clip-rule="evenodd" d="M8.681 6.29C7.971 7.05 7.6 8.083 7.6 9.142v.064c0 1.248 0 3.092-.498 4.636A5.812 5.812 0 0 1 6.592 15h10.816a5.812 5.812 0 0 1-.51-1.157C16.4 12.3 16.4 10.456 16.4 9.207v-.064c0-1.06-.371-2.093-1.081-2.854C14.623 5.544 13.545 5 12 5s-2.623.544-3.319 1.29zM21 16c0-.552-.47-.959-.977-1.18a1.724 1.724 0 0 1-.447-.283c-.324-.284-.583-.717-.774-1.309-.393-1.215-.402-2.763-.402-4.085 0-1.513-.529-3.05-1.619-4.218C15.677 3.742 14.055 3 12 3c-2.055 0-3.677.742-4.781 1.925C6.129 6.093 5.6 7.63 5.6 9.143c0 1.322-.009 2.87-.402 4.085-.19.592-.45 1.026-.774 1.309a1.723 1.723 0 0 1-.447.283C3.47 15.041 3 15.448 3 16a1 1 0 0 0 1 1h16a1 1 0 0 0 1-1zM12 21c-1.745 0-3-1.495-3-3h2c0 .495.453 1 1 1 .547 0 1-.505 1-1h2c0 1.505-1.255 3-3 3z"></path></svg>