<svg xmlns="http://www.w3.org/2000/svg" width="24" height="24" viewBox="0 0 24 24" fill="currentColor"><path d="M9.118 3a2 2 0 0 0-1.789 1.106L6.382 6H4a2 2 0 0 0-2 2v8a2 2 0 0 0 2 2h.582a7.947 7.947 0 0 1-.52-2C3.975 15.301 4 8 4 8h3.618l1.5-3h5.764l1.5 3H20s.025 7.301-.062 8a7.946 7.946 0 0 1-.52 2H20a2 2 0 0 0 2-2V8a2 2 0 0 0-2-2h-2.382l-.947-1.894A2 2 0 0 0 14.882 3H9.118z"></path><path fill-rule="evenodd" clip-rule="evenodd" d="M12 20a5 5 0 1 0 0-10 5 5 0 0 0 0 10zm0 2a7 7 0 1 0 0-14 7 7 0 0 0 0 14z"></path></svg>