<svg xmlns="http://www.w3.org/2000/svg" width="24" height="24" viewBox="0 0 24 24" fill="currentColor"><path fill-rule="evenodd" clip-rule="evenodd" d="M5.638 4.287a.966.966 0 0 1 1.362 0l1.595 1.596A6.958 6.958 0 0 1 10 5.29V3c0-.55.45-1 1-1h2c.55 0 1 .45 1 1v2.29c.466.139.912.325 1.332.553L17 4.175a1.003 1.003 0 0 1 1.413 0l1.412 1.413a1.003 1.003 0 0 1 0 1.412l-1.668 1.668c.228.42.414.866.553 1.332H21c.55 0 1 .45 1.012.988v2c0 .55-.45 1-1 1h-2.298a6.954 6.954 0 0 1-.588 1.4l1.599 1.6a.966.966 0 0 1 0 1.362l-1.363 1.362a.966.966 0 0 1-1.362 0l-1.595-1.595A6.957 6.957 0 0 1 14 18.71V21c0 .55-.45 1-1 1h-2c-.55 0-1-.45-1-1v-2.29a6.959 6.959 0 0 1-1.332-.553L7 19.825a1.003 1.003 0 0 1-1.412 0l-1.413-1.412a1.003 1.003 0 0 1 0-1.413l1.668-1.668A6.954 6.954 0 0 1 5.29 14H3c-.55 0-1-.45-1-1v-2c0-.55.45-1 1-1h2.29c.146-.49.344-.958.588-1.397l-1.59-1.59a.966.966 0 0 1 0-1.363l1.35-1.363zM16 12a4 4 0 1 1-8 0 4 4 0 0 1 8 0z"></path></svg>