<svg xmlns="http://www.w3.org/2000/svg" width="24" height="24" viewBox="0 0 24 24" fill="currentColor"><path fill-rule="evenodd" clip-rule="evenodd" d="M11.594 4.086a1 1 0 0 1 .812 0l9 4a1 1 0 0 1 0 1.828L18 11.428v4.85l-.144.24c-1.234 2.042-3.623 2.965-5.856 2.965-2.233 0-4.622-.923-5.856-2.966L6 16.28v-4.851l-1.5-.667V14.5a.5.5 0 0 1-1 0v-4.184l-.906-.402a1 1 0 0 1 0-1.828l9-4zM8 12.316v3.385c.812 1.133 2.337 1.782 4 1.782 1.663 0 3.188-.649 4-1.782v-3.385l-3.594 1.598a1 1 0 0 1-.812 0L8 12.316zM5.462 9L12 11.906 18.538 9 12 6.094 5.462 9z"></path><path d="M4 16a.5.5 0 0 1 .5.5v1a.5.5 0 0 1-1 0v-1A.5.5 0 0 1 4 16z"></path></svg>