<svg xmlns="http://www.w3.org/2000/svg" width="24" height="24" viewBox="0 0 24 24" fill="currentColor"><path d="M5 4a1 1 0 0 0-1 1v1H2V5a3 3 0 0 1 3-3h1v2H5zM4 19a1 1 0 0 0 1 1h1v2H5a3 3 0 0 1-3-3v-1h2v1zM19 20a1 1 0 0 0 1-1v-1h2v1a3 3 0 0 1-3 3h-1v-2h1zM19 4a1 1 0 0 1 1 1v1h2V5a3 3 0 0 0-3-3h-1v2h1zM11 4H8V2h3v2zM8 22h3v-2H8v2zM16 4h-3V2h3v2zM13 22h3v-2h-3v2zM20 11V8h2v3h-2zM2 8v3h2V8H2zM20 16v-3h2v3h-2zM2 13v3h2v-3H2zM6 7a1 1 0 0 1 1-1h3a1 1 0 0 1 1 1v3a1 1 0 0 1-1 1H7a1 1 0 0 1-1-1V7zM7 13a1 1 0 0 0-1 1v3a1 1 0 0 0 1 1h3a1 1 0 0 0 1-1v-3a1 1 0 0 0-1-1H7zM13 7a1 1 0 0 1 1-1h3a1 1 0 0 1 1 1v3a1 1 0 0 1-1 1h-3a1 1 0 0 1-1-1V7zM14 13a1 1 0 0 0-1 1v3a1 1 0 0 0 1 1h3a1 1 0 0 0 1-1v-3a1 1 0 0 0-1-1h-3z"></path></svg>