<svg xmlns="http://www.w3.org/2000/svg" width="24" height="24" viewBox="0 0 24 24" fill="currentColor"><path fill-rule="evenodd" clip-rule="evenodd" d="M12 9.5C11 8 10 5 7.25 5A3.25 3.25 0 0 0 4 8.25c0 .932.31 2.006.83 2.972l.002.002c.823 1.532 2.072 2.91 3.585 4.266 1.01.905 2.04 1.72 3.101 2.562l.485.383.53-.417c1.047-.824 2.057-1.619 3.052-2.507 1.502-1.34 2.747-2.711 3.583-4.268l.001-.001c.522-.97.831-2.047.831-2.992A3.25 3.25 0 0 0 16.75 5C14 5 13 8 12 9.5zM12 21c-.537-.44-1.093-.881-1.655-1.326-2.75-2.179-5.648-4.474-7.275-7.504C2.432 10.985 2 9.586 2 8.25 2 5.35 4.35 3 7.25 3c1.252 0 2.48.48 3.43 1.296A5.17 5.17 0 0 1 12 6.03a5.14 5.14 0 0 1 1.316-1.736A5.302 5.302 0 0 1 16.75 3C19.65 3 22 5.35 22 8.25c0 1.344-.427 2.746-1.07 3.94-1.642 3.054-4.492 5.298-7.232 7.457-.575.452-1.145.901-1.698 1.353z"></path></svg>