<svg xmlns="http://www.w3.org/2000/svg" width="24" height="24" viewBox="0 0 24 24" fill="currentColor"><path fill-rule="evenodd" clip-rule="evenodd" d="M12 4a8 8 0 1 0 0 16 8 8 0 0 0 0-16zM2 12C2 6.477 6.477 2 12 2s10 4.477 10 10-4.477 10-10 10S2 17.523 2 12z"></path><path fill-rule="evenodd" clip-rule="evenodd" d="M11.265 9.206C11.158 9.295 11 9.49 11 10H9c0-.99.342-1.795.985-2.33C10.595 7.16 11.35 7 12 7c.896 0 1.678.306 2.23.9.54.583.77 1.345.77 2.1 0 1.415-.756 2.17-1.267 2.68-.008.01-.017.018-.026.027-.49.49-.707.733-.707 1.293h-2c0-1.32.756-2.17 1.267-2.68.008-.01.017-.018.026-.027.49-.49.707-.733.707-1.293 0-.363-.108-.601-.236-.739C12.648 9.135 12.43 9 12 9c-.351 0-.596.09-.735.206z"></path><path d="M13 16a1 1 0 1 1-2 0 1 1 0 0 1 2 0z"></path></svg>