<svg xmlns="http://www.w3.org/2000/svg" width="24" height="24" viewBox="0 0 24 24" fill="currentColor"><path fill-rule="evenodd" clip-rule="evenodd" d="M4 12a8 8 0 1 1 16 0 8 8 0 0 1-16 0zm8-10C6.477 2 2 6.477 2 12s4.477 10 10 10 10-4.477 10-10S17.523 2 12 2zM9 9.999V9.978l.001-.034.005-.101a3.459 3.459 0 0 1 .35-1.29c.184-.369.476-.768.933-1.073C10.752 7.172 11.325 7 12 7c.64 0 1.193.133 1.652.396.463.264.774.627.975.995.374.684.373 1.396.373 1.596V10c0 .584-.079 1.053-.247 1.443-.178.412-.421.65-.574.791-.183.17-.39.312-.53.407l-.058.04c-.16.11-.25.182-.323.26-.094.103-.268.33-.268 1.059h-2c0-1.103.286-1.857.796-2.412a3.8 3.8 0 0 1 .655-.55l.079-.055a2.62 2.62 0 0 0 .291-.217c.074-.069.081-.081.096-.116.025-.059.083-.234.083-.65 0-.165-.01-.435-.127-.649a.537.537 0 0 0-.213-.219C12.557 9.075 12.36 9 12 9c-.325 0-.502.078-.602.145a.758.758 0 0 0-.254.302 1.464 1.464 0 0 0-.143.538l-.001.026-2-.012zM11 17v-2h2v2h-2z"></path></svg>