<svg xmlns="http://www.w3.org/2000/svg" width="24" height="24" viewBox="0 0 24 24" fill="currentColor"><path fill-rule="evenodd" clip-rule="evenodd" d="M12 2C6.477 2 2 6.477 2 12s4.477 10 10 10 10-4.477 10-10S17.523 2 12 2zm-1 8c0-.51.158-.705.265-.794C11.405 9.09 11.65 9 12 9c.43 0 .648.135.764.261.128.138.236.376.236.739 0 .56-.218.803-.707 1.293l-.026.026C11.757 11.83 11 12.681 11 14h2c0-.56.218-.803.707-1.293l.026-.026C14.243 12.17 15 11.415 15 10c0-.755-.23-1.517-.77-2.1-.552-.594-1.334-.9-2.23-.9-.649 0-1.404.16-2.015.67C9.342 8.204 9 9.01 9 10h2zm1 7a1 1 0 1 0 0-2 1 1 0 0 0 0 2z"></path></svg>