<svg xmlns="http://www.w3.org/2000/svg" width="24" height="24" viewBox="0 0 24 24" fill="currentColor"><path fill-rule="evenodd" clip-rule="evenodd" d="M6 4a2 2 0 0 1 2-2h8a2 2 0 0 1 2 2v2.054a4 4 0 0 1-.723 2.294l-2.155 3.079a1 1 0 0 0 0 1.146l2.155 3.079A4 4 0 0 1 18 17.946V20a2 2 0 0 1-2 2H8a2 2 0 0 1-2-2v-2.054a4 4 0 0 1 .723-2.294l2.155-3.079a1 1 0 0 0 0-1.146L6.723 8.348A4 4 0 0 1 6 6.054V4zm10 0H8v2.054a2 2 0 0 0 .362 1.147l2.154 3.079a3 3 0 0 1 0 3.44L8.362 16.8A2 2 0 0 0 8 17.946V20h8v-2.054a2 2 0 0 0-.361-1.147l-2.155-3.079a3 3 0 0 1 0-3.44L15.639 7.2A2 2 0 0 0 16 6.054V4z"></path><path d="M14.5 6h-5a.25.25 0 0 0-.2.4L12 10l2.7-3.6a.25.25 0 0 0-.2-.4z"></path></svg>