<svg xmlns="http://www.w3.org/2000/svg" width="24" height="24" viewBox="0 0 24 24" fill="currentColor"><path fill-rule="evenodd" clip-rule="evenodd" d="M18.364 5.636A9 9 0 1 0 5.636 18.364 9 9 0 0 0 18.364 5.636zM4.222 4.222c4.296-4.296 11.26-4.296 15.556 0 4.296 4.296 4.296 11.26 0 15.556-4.296 4.296-11.26 4.296-15.556 0-4.296-4.296-4.296-11.26 0-15.556z"></path><path fill-rule="evenodd" clip-rule="evenodd" d="M12 11a1 1 0 0 1 1 1v4a1 1 0 1 1-2 0v-4a1 1 0 0 1 1-1zM12 6.995c.552 0 1 .455 1 1.005 0 .55-.448.995-1 .995S11 8.55 11 8s.448-1.005 1-1.005z"></path></svg>