<svg xmlns="http://www.w3.org/2000/svg" width="24" height="24" viewBox="0 0 24 24" fill="currentColor"><path fill-rule="evenodd" clip-rule="evenodd" d="M11.553 2.106a1 1 0 0 1 .894 0l9 4.5a1 1 0 0 1 0 1.788l-9 4.5a1 1 0 0 1-.894 0l-9-4.5a1 1 0 0 1 0-1.788l9-4.5zM5.236 7.5L12 10.882 18.764 7.5 12 4.118 5.236 7.5zM2.106 16.053a1 1 0 0 1 1.341-.447L12 19.882l8.553-4.276a1 1 0 1 1 .894 1.788l-9 4.5a1 1 0 0 1-.894 0l-9-4.5a1 1 0 0 1-.447-1.341z"></path><path fill-rule="evenodd" clip-rule="evenodd" d="M2.106 11.553a1 1 0 0 1 1.341-.447L12 15.382l8.553-4.276a1 1 0 1 1 .894 1.788l-9 4.5a1 1 0 0 1-.894 0l-9-4.5a1 1 0 0 1-.447-1.341z"></path></svg>