<svg xmlns="http://www.w3.org/2000/svg" width="24" height="24" viewBox="0 0 24 24" fill="currentColor"><path fill-rule="evenodd" clip-rule="evenodd" d="M11.96 3.96a5.714 5.714 0 0 1 8.08 8.08l-2 2a1 1 0 1 1-1.414-1.414l2-2a3.714 3.714 0 0 0-5.252-5.252l-2 2A1 1 0 1 1 9.959 5.96l2-2zm4.414 3.666a1 1 0 0 1 0 1.414L9.04 16.374a1 1 0 0 1-1.414-1.414l7.333-7.334a1 1 0 0 1 1.415 0zm-9 2.334a1 1 0 0 1 0 1.414l-2 2a3.714 3.714 0 1 0 5.252 5.252l2-2a1 1 0 0 1 1.414 1.414l-2 2a5.714 5.714 0 0 1-8.08-8.08l2-2a1 1 0 0 1 1.414 0z"></path></svg>