<svg xmlns="http://www.w3.org/2000/svg" width="24" height="24" viewBox="0 0 24 24" fill="currentColor"><path d="M4.236 4.56A.5.5 0 0 1 4.5 5v4.5h1a.5.5 0 0 1 0 1h-3a.5.5 0 0 1 0-1h1V5.934l-.723.482a.5.5 0 0 1-.554-.832l1.5-1a.5.5 0 0 1 .513-.025zM8 6a1 1 0 0 1 1-1h12a1 1 0 1 1 0 2H9a1 1 0 0 1-1-1zM8 12a1 1 0 0 1 1-1h12a1 1 0 1 1 0 2H9a1 1 0 0 1-1-1zM9 17a1 1 0 1 0 0 2h12a1 1 0 1 0 0-2H9zM2.957 14.702c.125-.282.417-.467.743-.488.315-.02.606.114.76.419.094.183.088.38-.06.636-.16.274-.463.574-.887.866C2.466 16.857 2 17.842 2 19v.5h3.266a.5.5 0 0 0 0-1H3.04c.108-.613.432-1.122 1.04-1.541.482-.333.92-.734 1.184-1.189.274-.472.37-1.033.087-1.59-.361-.712-1.062-1.006-1.716-.964-.643.041-1.296.41-1.593 1.082a.5.5 0 0 0 .914.404z"></path></svg>