<svg xmlns="http://www.w3.org/2000/svg" width="24" height="24" viewBox="0 0 24 24" fill="currentColor"><path d="M18.002 2.716L13.89 6.83 15 7.939l4.112-4.113a.784.784 0 0 1 1.11 1.11l-4.114 4.112 1.11 1.11 4.112-4.113a2.353 2.353 0 1 0-3.328-3.329zM12.78 7.938l1.11 1.11-2.449 2.448a.784.784 0 0 0 1.11 1.11l2.448-2.449 1.11 1.11-6.007 6.006c-1.29 1.29-2.746 2.246-4.047 2.934L3.84 17.991c.687-1.3 1.644-2.756 2.934-4.046l6.006-6.007zM3.322 19.043a19.752 19.752 0 0 0-.714 1.786.471.471 0 0 0 .61.61c.463-.159 1.081-.392 1.786-.714l-1.682-1.682z"></path></svg>