<svg xmlns="http://www.w3.org/2000/svg" width="24" height="24" viewBox="0 0 24 24" fill="currentColor"><path fill-rule="evenodd" clip-rule="evenodd" d="M5 4a1 1 0 0 0-1 1v14a1 1 0 0 0 1 1h14a1 1 0 0 0 1-1V5a1 1 0 0 0-1-1H5zM2 5a3 3 0 0 1 3-3h14a3 3 0 0 1 3 3v14a3 3 0 0 1-3 3H5a3 3 0 0 1-3-3V5z"></path><path fill-rule="evenodd" clip-rule="evenodd" d="M7 12a1 1 0 0 1 1-1h8a1 1 0 1 1 0 2H8a1 1 0 0 1-1-1z"></path><path fill-rule="evenodd" clip-rule="evenodd" d="M12 17a1 1 0 0 1-1-1V8a1 1 0 1 1 2 0v8a1 1 0 0 1-1 1z"></path></svg>