<svg xmlns="http://www.w3.org/2000/svg" width="24" height="24" viewBox="0 0 24 24" fill="currentColor"><path fill-rule="evenodd" clip-rule="evenodd" d="M4.518 8.998a1 1 0 0 0 1.359-.39 7 7 0 0 1 12.885 1.58 1 1 0 0 0 1.931-.517A9 9 0 0 0 4.128 7.638a1 1 0 0 0 .39 1.36zM4.572 15.134a1 1 0 0 0-.366 1.366 9 9 0 0 0 15.687-.176 1 1 0 0 0-1.754-.96 7 7 0 0 1-12.201.136 1 1 0 0 0-1.366-.366z"></path><path d="M19.746 11.916a.5.5 0 0 0 .774-.325l.968-5.377a.5.5 0 0 0-.686-.55L15.315 7.97a.5.5 0 0 0-.088.875l4.52 3.071zM4.272 12.103a.5.5 0 0 0-.773.325l-.969 5.377a.5.5 0 0 0 .686.55l5.487-2.306a.5.5 0 0 0 .088-.874l-4.519-3.072z"></path></svg>