<svg xmlns="http://www.w3.org/2000/svg" width="24" height="24" viewBox="0 0 24 24" fill="currentColor"><path d="M4 2a1 1 0 0 1 1 1v4H3V3a1 1 0 0 1 1-1zM3 13h2v8a1 1 0 1 1-2 0v-8zM3 8a1 1 0 0 0-1 1v2a1 1 0 0 0 1 1h2a1 1 0 0 0 1-1V9a1 1 0 0 0-1-1H3zM13 3a1 1 0 1 0-2 0v8h2V3zM11 17v4a1 1 0 1 0 2 0v-4h-2zM11 12a1 1 0 0 0-1 1v2a1 1 0 0 0 1 1h2a1 1 0 0 0 1-1v-2a1 1 0 0 0-1-1h-2zM21 3a1 1 0 1 0-2 0v4h2V3zM19 21a1 1 0 1 0 2 0v-8h-2v8zM19 8a1 1 0 0 0-1 1v2a1 1 0 0 0 1 1h2a1 1 0 0 0 1-1V9a1 1 0 0 0-1-1h-2z"></path></svg>