<svg xmlns="http://www.w3.org/2000/svg" width="24" height="24" viewBox="0 0 24 24" fill="currentColor"><path fill-rule="evenodd" clip-rule="evenodd" d="M21.662 14.59l-1.933-.517c.177-.66.271-1.354.271-2.073 0-.72-.095-1.414-.27-2.073l1.932-.516c.22.826.338 1.694.338 2.589s-.118 1.763-.338 2.59zm-1-7.59L18.93 8a8.05 8.05 0 0 0-2.932-2.93l1.002-1.732A10.05 10.05 0 0 1 20.66 7zm-6.073-4.662l-.516 1.933A8.014 8.014 0 0 0 12 4c-.72 0-1.414.094-2.073.27l-.516-1.932C10.237 2.118 11.105 2 12 2s1.763.118 2.59.338zm-7.59 1L8.001 5.07a8.05 8.05 0 0 0-2.932 2.932L3.34 6.999a10.05 10.05 0 0 1 3.66-3.66zM2.34 9.411C2.117 10.237 2 11.105 2 12s.118 1.763.338 2.59l1.933-.517A8.014 8.014 0 0 1 4 12c0-.72.094-1.414.27-2.073l-1.932-.516zm1 7.59l1.73-1.002a8.05 8.05 0 0 0 2.932 2.932l-1.002 1.73a10.05 10.05 0 0 1-3.66-3.66zm6.072 4.66l.516-1.932c.66.177 1.354.271 2.073.271.72 0 1.414-.095 2.073-.27l.516 1.932c-.826.22-1.694.338-2.589.338s-1.763-.118-2.59-.338zm7.59-1l-1.002-1.73a8.05 8.05 0 0 0 2.932-2.932l1.73 1.002a10.049 10.049 0 0 1-3.66 3.66z"></path></svg>