<svg xmlns="http://www.w3.org/2000/svg" width="24" height="24" viewBox="0 0 24 24" fill="currentColor"><path d="M11.19 2.767c2.137-.27 4.68.295 6.361 2.13a1 1 0 1 1-1.475 1.351c-1.133-1.237-2.962-1.708-4.636-1.497-1.75.221-2.796 1.081-2.957 1.935-.076.4-.07.697-.01.94.06.235.185.483.44.766.42.469 1.143.98 2.328 1.608H7.687c-.093-.09-.18-.18-.262-.27-.438-.488-.742-1.02-.892-1.622-.148-.596-.129-1.195-.016-1.794.407-2.146 2.61-3.286 4.673-3.547zM14.402 14h2.86c.341.48.588 1.009.704 1.593.15.755.067 1.528-.208 2.317-.75 2.155-3.132 3.089-5.368 3.128-2.3.04-4.911-.825-6.642-2.798a1 1 0 0 1 1.504-1.319c1.27 1.447 3.27 2.149 5.104 2.117 1.899-.033 3.173-.809 3.514-1.786.18-.517.202-.926.134-1.27s-.243-.696-.572-1.076c-.26-.3-.603-.6-1.03-.906zM4.889 11C4.398 11 4 11.448 4 12s.398 1 .889 1H19.11c.491 0 .889-.448.889-1s-.398-1-.889-1H4.89z"></path></svg>