<svg xmlns="http://www.w3.org/2000/svg" width="24" height="24" viewBox="0 0 24 24" fill="currentColor"><path d="M4 5a1 1 0 0 0 0 2V5zm16 2a1 1 0 1 0 0-2v2zM4 7h2V5H4v2zm1-1v14h2V6H5zm2 16h10v-2H7v2zM18 7h2V5h-2v2zm1 13V6h-2v14h2zM6 7h3V5H6v2zm4-1V4H8v2h2zm0-2h4V2h-4v2zM9 7h6V5H9v2zm6 0h3V5h-3v2zm-1-3v2h2V4h-2zm-4 0V2a2 2 0 0 0-2 2h2zm7 18a2 2 0 0 0 2-2h-2v2zM14 4h2a2 2 0 0 0-2-2v2zM5 20a2 2 0 0 0 2 2v-2H5zM11 11a1 1 0 1 0-2 0h2zm-2 5a1 1 0 1 0 2 0H9zm0-5v5h2v-5H9zM15 11a1 1 0 1 0-2 0h2zm-2 5a1 1 0 1 0 2 0h-2zm0-5v5h2v-5h-2z"></path></svg>