<svg xmlns="http://www.w3.org/2000/svg" width="24" height="24" viewBox="0 0 24 24" fill="currentColor"><path fill-rule="evenodd" clip-rule="evenodd" d="M9.5 17c-1.976 0-3.67.587-4.592 1.562-.424.449-.661 1.042-.787 1.574A4.806 4.806 0 0 0 4 21L4 21.005V21L3 21H2V20.957l.003-.084a6.808 6.808 0 0 1 .171-1.198c.17-.718.524-1.687 1.281-2.488C4.896 15.664 7.221 15 9.5 15c2.28 0 4.604.664 6.045 2.188.757.801 1.11 1.77 1.28 2.488a6.819 6.819 0 0 1 .172 1.198l.003.084V21L16 21h-1v.004-.005l-.001-.04a4.811 4.811 0 0 0-.12-.824c-.126-.53-.363-1.124-.788-1.573C13.17 17.586 11.476 17 9.5 17zM9.5 5C8.213 5 7 6.018 7 8.05c0 1.046.334 2.086.85 2.843C8.379 11.663 8.985 12 9.5 12s1.122-.336 1.65-1.107c.516-.757.85-1.797.85-2.843C12 6.018 10.787 5 9.5 5zM5 8.05C5 5.111 6.92 3 9.5 3S14 5.111 14 8.05c0 1.439-.45 2.874-1.2 3.971C12.06 13.104 10.918 14 9.5 14c-1.417 0-2.56-.896-3.3-1.979C5.45 10.924 5 9.49 5 8.05zM17.5 17c-.5-1-1.5-2-1.5-2 1.807 0 3.676.564 4.84 1.882.612.692.89 1.52 1.023 2.12A6.1 6.1 0 0 1 22 20.08v.035s0 .002-1 .002l-1 .003c0-.621-.5-2.621-2.5-3.121zM16 6c-.245 0-.47.057-.67.162L14.4 4.391A3.428 3.428 0 0 1 16 4c2.192 0 3.692 1.903 3.692 4.335 0 1.205-.35 2.413-.945 3.344-.58.907-1.52 1.733-2.747 1.733-.665 0-1.256-.25-1.738-.615l1.207-1.594c.207.156.385.209.531.209.26 0 .666-.19 1.06-.809.38-.595.632-1.426.632-2.268C17.692 6.674 16.782 6 16 6z"></path></svg>