<svg xmlns="http://www.w3.org/2000/svg" width="24" height="24" viewBox="0 0 24 24" fill="currentColor"><path fill-rule="evenodd" clip-rule="evenodd" d="M12 17c-2.109 0-3.944.694-4.965 1.897-.485.572-.756 1.328-.898 1.998A6.71 6.71 0 0 0 6 21.993v.01V22L5 22H4v-.044l.003-.094a8.702 8.702 0 0 1 .178-1.382c.176-.83.542-1.95 1.33-2.877C7.034 15.806 9.525 15 12 15s4.965.806 6.49 2.603c.787.928 1.153 2.047 1.33 2.877a8.68 8.68 0 0 1 .177 1.382l.003.094V21.999L19 22h-1v.002-.01a3.601 3.601 0 0 0-.016-.283 6.715 6.715 0 0 0-.121-.814c-.142-.67-.413-1.426-.898-1.998C15.944 17.694 14.108 17 12 17zM12 4c-1.588 0-3 1.22-3 3.5 0 1.178.386 2.352.99 3.21C10.6 11.58 11.333 12 12 12c.667 0 1.399-.42 2.01-1.29.604-.858.99-2.032.99-3.21C15 5.22 13.588 4 12 4zM7 7.5C7 4.258 9.17 2 12 2s5 2.258 5 5.5c0 1.583-.51 3.16-1.354 4.36C14.81 13.05 13.543 14 12 14c-1.542 0-2.81-.95-3.647-2.14C7.51 10.66 7 9.084 7 7.5z"></path></svg>