<svg xmlns="http://www.w3.org/2000/svg" width="16" height="16" viewBox="0 0 16 16" fill="currentColor"><path fill-rule="evenodd" clip-rule="evenodd" d="M4.061 2.794C4.914 1.599 6.253 1 8 1c1.747 0 3.086.6 3.939 1.794C12.744 3.92 13 5.424 13 7c0 .852.216 1.646.582 2.195.14.21.3.383.48.513.447.323.938.74.938 1.292a1 1 0 0 1-1 1H2a1 1 0 0 1-1-1c0-.552.491-.969.939-1.292.18-.13.339-.302.479-.513C2.784 8.646 3 7.852 3 7c0-1.577.256-3.08 1.061-4.206zM4.27 10h7.462C11.228 9.104 11 8.029 11 7c0-1.423-.244-2.42-.689-3.044C9.914 3.401 9.253 3 8 3s-1.914.4-2.311.956C5.244 4.58 5 5.576 5 7c0 1.029-.228 2.104-.731 3z"></path><path d="M8 15c2 0 3-2 3-2H5s1 2 3 2z"></path></svg>