<svg xmlns="http://www.w3.org/2000/svg" width="16" height="16" viewBox="0 0 16 16" fill="currentColor"><path d="M8 15c2 0 3-2 3-2H5s1 2 3 2zM9.293 12l-2-2H4.269c.394-.702.619-1.513.698-2.326L3.06 5.767C3.018 6.169 3 6.582 3 7c0 .852-.216 1.646-.582 2.195-.14.21-.3.383-.48.513C1.492 10.03 1 10.448 1 11a1 1 0 0 0 1 1h7.293zM4.75 2.043C5.574 1.348 6.668 1 8 1c1.747 0 3.086.6 3.939 1.794C12.744 3.92 13 5.424 13 7c0 .852.216 1.646.582 2.195.14.21.3.383.48.513.447.323.938.74.938 1.292 0 .351-.18.66-.455.838l-3.391-3.392A6.82 6.82 0 0 1 11 7c0-1.423-.244-2.42-.689-3.044C9.914 3.401 9.253 3 8 3c-.843 0-1.417.181-1.824.469L4.75 2.043z"></path><path fill-rule="evenodd" clip-rule="evenodd" d="M1.293 1.293a1 1 0 0 1 1.414 0l12 12a1 1 0 0 1-1.414 1.414l-12-12a1 1 0 0 1 0-1.414z"></path></svg>