<svg xmlns="http://www.w3.org/2000/svg" width="16" height="16" viewBox="0 0 16 16" fill="currentColor"><g clip-path="url(#clip0)"><path fill-rule="evenodd" clip-rule="evenodd" d="M0 1a1 1 0 0 1 1-1h2a1 1 0 0 1 .976.783L4.47 3H15a1 1 0 0 1 .986 1.164l-.86 5.165A2 2 0 0 1 13.153 11h-7.35A2 2 0 0 1 3.85 9.434L2.695 4.238a.994.994 0 0 1-.009-.04L2.198 2H1a1 1 0 0 1-1-1zm4.913 4l.89 4h7.35l.666-4H4.913z"></path><path d="M7 13.5a1.5 1.5 0 1 1-3 0 1.5 1.5 0 0 1 3 0zM15 13.5a1.5 1.5 0 1 1-3 0 1.5 1.5 0 0 1 3 0z"></path></g><defs><clippath id="clip0"><path d="M0 0h16v16H0z"></path></clippath></defs></svg>