<svg xmlns="http://www.w3.org/2000/svg" width="16" height="16" viewBox="0 0 16 16" fill="currentColor"><mask id="a"><path fill-rule="evenodd" clip-rule="evenodd" d="M6 2v1h4V2H6zM5 0a1 1 0 0 0-1 1v3a1 1 0 0 0 1 1h6a1 1 0 0 0 1-1V1a1 1 0 0 0-1-1H5z"></path></mask><path fill-rule="evenodd" clip-rule="evenodd" d="M6 2v1h4V2H6zM5 0a1 1 0 0 0-1 1v3a1 1 0 0 0 1 1h6a1 1 0 0 0 1-1V1a1 1 0 0 0-1-1H5z"></path><path d="M6 3H4v2h2V3zm0-1V0H4v2h2zm4 1v2h2V3h-2zm0-1h2V0h-2v2zM8 3V2H4v1h4zm2-2H6v4h4V1zM8 2v1h4V2H8zM6 4h4V0H6v4zm0-3a1 1 0 0 1-1 1v-4a3 3 0 0 0-3 3h4zm0 3V1H2v3h4zM5 3a1 1 0 0 1 1 1H2a3 3 0 0 0 3 3V3zm6 0H5v4h6V3zm-1 1a1 1 0 0 1 1-1v4a3 3 0 0 0 3-3h-4zm0-3v3h4V1h-4zm1 1a1 1 0 0 1-1-1h4a3 3 0 0 0-3-3v4zM5 2h6v-4H5v4z" mask="url(#a)"></path><mask id="b"><path d="M3 14V1a2 2 0 0 0-2 2v11a2 2 0 0 0 2 2h10a2 2 0 0 0 2-2V3a2 2 0 0 0-2-2v13H3z"></path></mask><path d="M3 14V1a2 2 0 0 0-2 2v11a2 2 0 0 0 2 2h10a2 2 0 0 0 2-2V3a2 2 0 0 0-2-2v13H3z"></path><path d="M3 14H1v2h2v-2zM3 1h2v-2H3v2zm10 0v-2h-2v2h2zm0 13v2h2v-2h-2zM3-1a4 4 0 0 0-4 4h4v-4zm-4 4v11h4V3h-4zm0 11a4 4 0 0 0 4 4v-4h-4zm4 4h10v-4H3v4zm10 0a4 4 0 0 0 4-4h-4v4zm4-4V3h-4v11h4zm0-11a4 4 0 0 0-4-4v4h4zM3 16h10v-4H3v4zM1 1v13h4V1H1zm10 0v13h4V1h-4z" mask="url(#b)"></path></svg>