<svg xmlns="http://www.w3.org/2000/svg" width="16" height="16" viewBox="0 0 16 16" fill="currentColor"><path fill-rule="evenodd" clip-rule="evenodd" d="M12 5c-.28 0-.53.11-.71.29L9 7.59V1c0-.55-.45-1-1-1S7 .45 7 1v6.59L4.71 5.3A.965.965 0 0 0 4 5a1.003 1.003 0 0 0-.71 1.71l4 4c.18.18.43.29.71.29.28 0 .53-.11.71-.29l4-4A1.003 1.003 0 0 0 12 5z"></path><path fill-rule="evenodd" clip-rule="evenodd" d="M1 10a1 1 0 0 1 1 1v3h12v-3a1 1 0 1 1 2 0v3a2 2 0 0 1-2 2H2a2 2 0 0 1-2-2v-3a1 1 0 0 1 1-1z"></path></svg>