<svg xmlns="http://www.w3.org/2000/svg" width="16" height="16" viewBox="0 0 16 16" fill="currentColor"><path fill-rule="evenodd" clip-rule="evenodd" d="M2.5 9C1.675 9 1 9.675 1 10.5S1.675 12 2.5 12 4 11.325 4 10.5 3.325 9 2.5 9zm0-5C1.675 4 1 4.675 1 5.5S1.675 7 2.5 7 4 6.325 4 5.5 3.325 4 2.5 4zM8 9c-.825 0-1.5.675-1.5 1.5S7.175 12 8 12s1.5-.675 1.5-1.5S8.825 9 8 9zm5.5-5c-.825 0-1.5.675-1.5 1.5S12.675 7 13.5 7 15 6.325 15 5.5 14.325 4 13.5 4zm0 5c-.825 0-1.5.675-1.5 1.5s.675 1.5 1.5 1.5 1.5-.675 1.5-1.5S14.325 9 13.5 9zM8 4c-.825 0-1.5.675-1.5 1.5S7.175 7 8 7s1.5-.675 1.5-1.5S8.825 4 8 4z"></path></svg>