<svg xmlns="http://www.w3.org/2000/svg" width="16" height="16" viewBox="0 0 16 16" fill="currentColor"><g clip-path="url(#clip0)"><path fill-rule="evenodd" clip-rule="evenodd" d="M2.91 1.83c.3-.3.79-.3 1.09 0l1.3 1.3c.35-.19.71-.35 1.1-.47V.8c0-.44.36-.8.8-.8h1.6c.44 0 .8.36.8.8v1.86c.37.11.71.27 1.04.44L12 1.74c.31-.31.82-.31 1.13 0l1.13 1.13c.31.31.31.82 0 1.13L12.9 5.36c.18.33.34.67.45 1.04h1.85c.44 0 .8.36.81.79v1.6c0 .44-.36.8-.8.8h-1.85c-.12.39-.29.75-.48 1.1l1.3 1.3c.3.3.3.79 0 1.09l-1.09 1.09c-.3.3-.79.3-1.09 0l-1.3-1.3c-.35.19-.71.35-1.1.47v1.86c0 .44-.36.8-.8.8H7.2c-.44 0-.8-.36-.8-.8v-1.86c-.37-.11-.71-.26-1.04-.44L4 14.26c-.31.31-.82.31-1.13 0l-1.13-1.13a.803.803 0 0 1 0-1.13l1.36-1.36c-.18-.33-.34-.67-.45-1.04H.8c-.44 0-.8-.36-.8-.8V7.2c0-.44.36-.8.8-.8h1.85c.12-.39.28-.75.48-1.09l-1.3-1.3c-.3-.3-.3-.79 0-1.09l1.08-1.09zm-.324 1.414l.005.005-.005-.005zM5 8c0 1.66 1.34 3 3 3s3-1.34 3-3-1.34-3-3-3-3 1.34-3 3z"></path></g><defs><clippath id="clip0"><path d="M0 0h16v16H0z"></path></clippath></defs></svg>