<svg xmlns="http://www.w3.org/2000/svg" width="16" height="16" viewBox="0 0 16 16" fill="currentColor"><g clip-path="url(#clip0)"><path fill-rule="evenodd" clip-rule="evenodd" d="M9.849 14.132a12.051 12.051 0 0 0 1.757-5.33h2.738a6.416 6.416 0 0 1-4.495 5.33zm-1.845-.127a10.448 10.448 0 0 1-2.008-5.202h4.009a10.443 10.443 0 0 1-2.001 5.202zM1.655 8.803h2.74a12.05 12.05 0 0 0 1.764 5.331 6.417 6.417 0 0 1-4.504-5.331zm4.175-6.82a12.053 12.053 0 0 0-1.456 5.218H1.655A6.414 6.414 0 0 1 5.83 1.983zm2.144-.386l.021-.028.021.028a10.441 10.441 0 0 1 2.01 5.604H5.974a10.45 10.45 0 0 1 2-5.604zm6.37 5.604h-2.718a12.06 12.06 0 0 0-1.467-5.222 6.413 6.413 0 0 1 4.185 5.222zM8.684.03C3.954-.372 0 3.359 0 8.002c0 4.35 3.468 7.872 7.768 7.995C12.31 16.127 16 12.476 16 8.002A7.994 7.994 0 0 0 8.684.03z"></path></g><defs><clippath id="clip0"><path d="M0 0h16v16H0z"></path></clippath></defs></svg>