<svg xmlns="http://www.w3.org/2000/svg" width="16" height="16" viewBox="0 0 16 16" fill="currentColor"><path fill-rule="evenodd" clip-rule="evenodd" d="M8.394 2.08a1 1 0 0 0-.788 0l-7 3a1 1 0 0 0 0 1.84L1 7.087V10a.5.5 0 0 0 1 0V7.517l1.001.429A1.017 1.017 0 0 0 3 8v3.236l.106.211v.002l.002.003.003.005.006.013a1.778 1.778 0 0 0 .077.135c.049.08.118.185.21.307.182.244.458.558.846.869C5.04 13.412 6.257 14 8 14c1.743 0 2.96-.588 3.75-1.22.388-.31.664-.624.847-.867a3.86 3.86 0 0 0 .286-.443l.006-.013.003-.005.001-.003.001-.002.106-.21V8l-.001-.054 2.395-1.027a1 1 0 0 0 0-1.838l-7-3zM11 8.803L8.394 9.92a1 1 0 0 1-.788 0L5 8.802v1.906l.003.005c.099.13.26.317.497.506.46.369 1.243.781 2.5.781s2.04-.412 2.5-.78c.237-.19.398-.376.497-.508l.003-.004V8.802zm-3-.89L3.539 6 8 4.088 12.461 6 8 7.912zM2 11.5a.5.5 0 0 0-1 0v1a.5.5 0 0 0 1 0v-1z"></path></svg>