<svg xmlns="http://www.w3.org/2000/svg" width="16" height="16" viewBox="0 0 16 16" fill="currentColor"><path fill-rule="evenodd" clip-rule="evenodd" d="M7.606 2.08a1 1 0 0 1 .788 0l7 3a1 1 0 0 1 0 1.84l-7 3a1 1 0 0 1-.788 0l-7-3a1 1 0 0 1 0-1.84l7-3zM3.54 6L8 7.912 12.461 6 8 4.088 3.539 6z"></path><path fill-rule="evenodd" clip-rule="evenodd" d="M4 7a1 1 0 0 1 1 1v2.708l.003.005c.099.13.26.317.497.506.46.369 1.243.781 2.5.781s2.04-.412 2.5-.78c.237-.19.398-.376.497-.508l.003-.004V8a1 1 0 1 1 2 0v3.236l-.106.212v.001l-.002.003-.003.005-.006.013a1.78 1.78 0 0 1-.077.135 3.86 3.86 0 0 1-.21.307 4.842 4.842 0 0 1-.846.869C10.96 13.412 9.743 14 8 14c-1.743 0-2.96-.588-3.75-1.22a4.841 4.841 0 0 1-.847-.867 3.816 3.816 0 0 1-.286-.443l-.006-.013-.003-.005-.001-.003L3 11.235V8a1 1 0 0 1 1-1z"></path><path d="M1 6.5a.5.5 0 0 1 1 0v5a.5.5 0 0 1-1 0v-5z"></path></svg>