<svg xmlns="http://www.w3.org/2000/svg" width="16" height="16" viewBox="0 0 16 16" fill="currentColor"><path d="M1 2.5A1.5 1.5 0 0 1 2.5 1H4V0H2.5A2.5 2.5 0 0 0 0 2.5V4h1V2.5zM1 13.5A1.5 1.5 0 0 0 2.5 15H4v1H2.5A2.5 2.5 0 0 1 0 13.5V12h1v1.5zM15 2.5A1.5 1.5 0 0 0 13.5 1H12V0h1.5A2.5 2.5 0 0 1 16 2.5V4h-1V2.5zM13.5 15a1.5 1.5 0 0 0 1.5-1.5V12h1v1.5a2.5 2.5 0 0 1-2.5 2.5H12v-1h1.5zM10 1H6V0h4v1zM6 16h4v-1H6v1zM1 6v4H0V6h1zM16 10V6h-1v4h1zM3 4a1 1 0 0 1 1-1h2a1 1 0 0 1 1 1v2a1 1 0 0 1-1 1H4a1 1 0 0 1-1-1V4zM4 9a1 1 0 0 0-1 1v2a1 1 0 0 0 1 1h2a1 1 0 0 0 1-1v-2a1 1 0 0 0-1-1H4zM9 4a1 1 0 0 1 1-1h2a1 1 0 0 1 1 1v2a1 1 0 0 1-1 1h-2a1 1 0 0 1-1-1V4zM10 9a1 1 0 0 0-1 1v2a1 1 0 0 0 1 1h2a1 1 0 0 0 1-1v-2a1 1 0 0 0-1-1h-2z"></path></svg>