<svg xmlns="http://www.w3.org/2000/svg" width="16" height="16" viewBox="0 0 16 16" fill="currentColor"><path fill-rule="evenodd" clip-rule="evenodd" d="M8.84 5.257c-.416.58-1.262.58-1.678 0C6.38 4.164 5.342 3 4.201 3 2.942 3 2.015 3.97 2 5.058c0 .942.237 1.444.605 2.109l.001.002c.866 1.57 5.394 5.267 5.394 5.267s4.527-3.698 5.393-5.268l.001-.001c.367-.664.606-1.167.606-2.109C13.987 3.971 13.06 3 11.8 3 10.66 3 9.623 4.164 8.839 5.257zm6.305 2.878c-.978 1.772-4.99 5.116-6.534 6.366a.965.965 0 0 1-1.22 0C5.846 13.25 1.834 9.907.856 8.135.308 7.144-.07 5.945.011 4.798.161 2.676 1.98 1 4.201 1c1.682 0 3.13.964 3.8 2.353A4.206 4.206 0 0 1 11.8 1c2.221 0 4.04 1.677 4.19 3.8.082 1.16-.289 2.327-.846 3.335z"></path></svg>