<svg xmlns="http://www.w3.org/2000/svg" width="16" height="16" viewBox="0 0 16 16" fill="currentColor"><path fill-rule="evenodd" clip-rule="evenodd" d="M8 14A6 6 0 1 0 8 2a6 6 0 0 0 0 12zm0 2A8 8 0 1 0 8 0a8 8 0 0 0 0 16z"></path><path d="M9 12a1 1 0 1 1-2 0 1 1 0 0 1 2 0z"></path><path fill-rule="evenodd" clip-rule="evenodd" d="M7.265 5.206C7.158 5.295 7 5.49 7 6H5c0-.99.342-1.795.985-2.33C6.595 3.16 7.35 3 8 3c.896 0 1.678.306 2.23.9.54.583.77 1.345.77 2.1 0 1.415-.756 2.17-1.267 2.68l-.026.027C9.217 9.197 9 9.44 9 10H7c0-1.32.756-2.17 1.267-2.68l.026-.027C8.783 6.803 9 6.56 9 6c0-.363-.108-.601-.236-.739C8.647 5.135 8.43 5 8 5c-.351 0-.596.09-.735.206z"></path></svg>