<svg xmlns="http://www.w3.org/2000/svg" width="16" height="16" viewBox="0 0 16 16" fill="currentColor"><path fill-rule="evenodd" clip-rule="evenodd" d="M8 14A6 6 0 1 0 8 2a6 6 0 0 0 0 12zm0 2A8 8 0 1 0 8 0a8 8 0 0 0 0 16z"></path><path fill-rule="evenodd" clip-rule="evenodd" d="M7 6c0-.51.158-.705.265-.794C7.405 5.09 7.65 5 8 5c.43 0 .647.135.764.261.128.138.236.376.236.739 0 .56-.218.803-.707 1.293l-.026.026C7.757 7.83 7 8.681 7 10h2c0-.56.218-.803.707-1.293l.026-.026C10.243 8.17 11 7.415 11 6c0-.755-.23-1.517-.77-2.1C9.678 3.307 8.896 3 8 3c-.649 0-1.404.16-2.015.67C5.342 4.204 5 5.01 5 6h2zm2 6v-1H7v1a1 1 0 1 0 2 0z"></path></svg>