<svg xmlns="http://www.w3.org/2000/svg" width="16" height="16" viewBox="0 0 16 16" fill="currentColor"><path fill-rule="evenodd" clip-rule="evenodd" d="M8 3a1 1 0 0 1 1 1v3.586l1.707 1.707a1 1 0 0 1-1.414 1.414l-2-2A1 1 0 0 1 7 8V4a1 1 0 0 1 1-1z"></path><path fill-rule="evenodd" clip-rule="evenodd" d="M8 2a5.996 5.996 0 0 0-5.143 2.909 1 1 0 1 1-1.713-1.033 8 8 0 1 1-.812 6.409 1 1 0 1 1 1.916-.57A6 6 0 1 0 8 2z"></path><path d="M.625 6.794l3.794-.807a.5.5 0 0 0 .21-.879L.814 2.037A.5.5 0 0 0 0 2.429L0 6.307c.002.317.315.553.625.487z"></path></svg>