<svg xmlns="http://www.w3.org/2000/svg" width="16" height="16" viewBox="0 0 16 16" fill="currentColor"><path fill-rule="evenodd" clip-rule="evenodd" d="M3 2a2 2 0 0 1 2-2h6a2 2 0 0 1 2 2v1.333a3 3 0 0 1-.6 1.8L10.7 7.4a1 1 0 0 0 0 1.2l1.7 2.267a3 3 0 0 1 .6 1.8V14a2 2 0 0 1-2 2H5a2 2 0 0 1-2-2v-1.333a3 3 0 0 1 .6-1.8L5.3 8.6a1 1 0 0 0 0-1.2L3.6 5.133a3 3 0 0 1-.6-1.8V2zm8 0H5v1.333a1 1 0 0 0 .2.6L6.9 6.2a3 3 0 0 1 0 3.6l-1.7 2.267a1 1 0 0 0-.2.6V14h6v-1.333a1 1 0 0 0-.2-.6L9.1 9.8a3 3 0 0 1 0-3.6l1.7-2.267a1 1 0 0 0 .2-.6V2z"></path><path d="M8 6l2-2.5H6L8 6z"></path></svg>