<svg xmlns="http://www.w3.org/2000/svg" width="16" height="16" viewBox="0 0 16 16" fill="currentColor"><path fill-rule="evenodd" clip-rule="evenodd" d="M3.007 3.337l-.005-2.335a1 1 0 0 1 1-1.002h8a1 1 0 0 1 1 .998l.005 2.332a2 2 0 0 1-.402 1.206l-2.153 2.863a1 1 0 0 0 0 1.202l2.153 2.863a2 2 0 0 1 .402 1.207l-.005 2.331a1 1 0 0 1-1 .998h-8a1 1 0 0 1-1-1.002l.005-2.335a2 2 0 0 1 .398-1.194L5.552 8.6a1 1 0 0 0 0-1.198l-2.147-2.87a2 2 0 0 1-.398-1.194zM11 12.667V14H5v-1.333a2 2 0 0 1 .4-1.2L7.1 9.2a2 2 0 0 0 0-2.4L5.4 4.533a2 2 0 0 1-.4-1.2V2h6v1.333a2 2 0 0 1-.4 1.2L8.9 6.8a2 2 0 0 0 0 2.4l1.7 2.267a2 2 0 0 1 .4 1.2z"></path><path d="M8 6.667L10 4H6l2 2.667zM6.72 12.567L5 14h6l-1.72-1.433a2 2 0 0 0-2.56 0z"></path></svg>