<svg xmlns="http://www.w3.org/2000/svg" width="16" height="16" viewBox="0 0 16 16" fill="currentColor"><path fill-rule="evenodd" clip-rule="evenodd" d="M7.553.106a1 1 0 0 1 .894 0l7 3.5a1 1 0 0 1 0 1.788l-7 3.5a1 1 0 0 1-.894 0l-7-3.5a1 1 0 0 1 0-1.789l7-3.5zM3.236 4.5L8 6.882 12.764 4.5 8 2.118 3.236 4.5zM.106 11.053a1 1 0 0 1 1.341-.448L8 13.882l6.553-3.277a1 1 0 1 1 .894 1.79l-7 3.499a1 1 0 0 1-.894 0l-7-3.5a1 1 0 0 1-.447-1.341z"></path><path fill-rule="evenodd" clip-rule="evenodd" d="M.106 7.553a1 1 0 0 1 1.341-.448L8 10.382l6.553-3.277a1 1 0 1 1 .894 1.79l-7 3.5a1 1 0 0 1-.894 0l-7-3.5a1 1 0 0 1-.447-1.342z"></path></svg>