<svg xmlns="http://www.w3.org/2000/svg" width="16" height="16" viewBox="0 0 16 16" fill="currentColor"><path fill-rule="evenodd" clip-rule="evenodd" d="M13.1 2.899a3.976 3.976 0 0 0-5.622 0l-.94.94A.85.85 0 0 0 7.742 5.04l.94-.939a2.276 2.276 0 1 1 3.218 3.219l-.94.94a.85.85 0 1 0 1.203 1.201l.939-.94a3.976 3.976 0 0 0 0-5.622zM2.9 13.101a3.976 3.976 0 0 0 5.622 0l.94-.94a.85.85 0 0 0-1.203-1.201l-.94.939A2.276 2.276 0 1 1 4.102 8.68l.94-.94A.85.85 0 0 0 3.839 6.54l-.94.94a3.976 3.976 0 0 0 0 5.622z"></path><path fill-rule="evenodd" clip-rule="evenodd" d="M10.119 5.881a.875.875 0 0 1 0 1.238l-3 3A.875.875 0 0 1 5.88 8.88l3-3a.875.875 0 0 1 1.238 0z"></path></svg>