<svg xmlns="http://www.w3.org/2000/svg" width="16" height="16" viewBox="0 0 16 16" fill="currentColor"><path fill-rule="evenodd" clip-rule="evenodd" d="M.924 10.32l.003-.005a.857.857 0 0 1 .144-.153A.66.66 0 0 1 1.5 10c.194 0 .306.069.374.146a.57.57 0 0 1 .128.376c0 .453-.27.682-.8 1.078l-.035.026C.692 11.979 0 12.493 0 13.499a.5.5 0 0 0 .5.5h2.003a.5.5 0 1 0 0-1H1.146c.132-.197.351-.372.654-.597l.047-.035c.47-.35 1.156-.858 1.156-1.845 0-.365-.118-.743-.378-1.037C2.358 9.18 1.968 9 1.5 9c-.48 0-.84.203-1.068.392a1.858 1.858 0 0 0-.348.385l-.007.01-.002.005-.001.001-.001.002.427.26-.427-.26a.5.5 0 0 0 .851.524zM1.766 2.075a.5.5 0 0 1 .237.425V6h.503a.5.5 0 0 1 0 1H.5a.5.5 0 0 1 0-1h.503V3.308l-.28.14a.5.5 0 1 1-.446-.896l1.003-.5a.5.5 0 0 1 .486.023zM5 13a1 1 0 0 1 1-1h9a1 1 0 1 1 0 2H6a1 1 0 0 1-1-1zM5 3a1 1 0 0 1 1-1h9a1 1 0 1 1 0 2H6a1 1 0 0 1-1-1zM5 8a1 1 0 0 1 1-1h9a1 1 0 1 1 0 2H6a1 1 0 0 1-1-1z"></path></svg>