<svg xmlns="http://www.w3.org/2000/svg" width="16" height="16" viewBox="0 0 16 16" fill="currentColor"><path fill-rule="evenodd" clip-rule="evenodd" d="M10 12c0-.28.11-.53.29-.71L12.59 9H6c-.55 0-1-.45-1-1s.45-1 1-1h6.59L10.3 4.71A.965.965 0 0 1 10 4a1.003 1.003 0 0 1 1.71-.71l4 4c.18.18.29.43.29.71 0 .28-.11.53-.29.71l-4 4A1.003 1.003 0 0 1 10 12z"></path><path fill-rule="evenodd" clip-rule="evenodd" d="M6 1a1 1 0 0 1-1 1H2v12h3a1 1 0 1 1 0 2H2a2 2 0 0 1-2-2V2a2 2 0 0 1 2-2h3a1 1 0 0 1 1 1z"></path></svg>