<svg xmlns="http://www.w3.org/2000/svg" width="16" height="16" viewBox="0 0 16 16" fill="currentColor"><mask id="a"><path fill-rule="evenodd" clip-rule="evenodd" d="M8 2a6 6 0 0 0-5.196 9l-1.732 1a8 8 0 1 1 13.856 0l-1.732-1A6 6 0 0 0 8 2z"></path></mask><path fill-rule="evenodd" clip-rule="evenodd" d="M8 2a6 6 0 0 0-5.196 9l-1.732 1a8 8 0 1 1 13.856 0l-1.732-1A6 6 0 0 0 8 2z"></path><path d="M5 2.804l1 1.732-1-1.732zM8 2v2-2zM2.804 5l1.732 1-1.732-1zm0 6l1 1.732 1.732-1-1-1.732-1.732 1zm-1.732 1L-.66 13l1 1.732 1.732-1-1-1.732zm0-8L-.66 3l1.732 1zM4 1.072L3-.66l1 1.732zm8 0l-1 1.732 1-1.732zM14.928 4l-1.732 1 1.732-1zm0 8l-1 1.732 1.732 1 1-1.732-1.732-1zm-1.732-1l-1.732-1-1 1.732 1.732 1 1-1.732zm0-6l1.732-1-1.732 1zM11 2.804l1-1.732-1 1.732zM6 4.536A4 4 0 0 1 8 4V0a8 8 0 0 0-4 1.072l2 3.464zM4.536 6A4 4 0 0 1 6 4.536L4 1.072A8 8 0 0 0 1.072 4l3.464 2zM4 8a4 4 0 0 1 .536-2L1.072 4A8 8 0 0 0 0 8h4zm.536 2A4 4 0 0 1 4 8H0a8 8 0 0 0 1.072 4l3.464-2zm-2.464 3.732l1.732-1-2-3.464-1.732 1 2 3.464zM-2 8a10 10 0 0 0 1.34 5l3.464-2A6 6 0 0 1 2 8h-4zm1.34-5A10 10 0 0 0-2 8h4a6 6 0 0 1 .804-3L-.66 3zM3-.66A10 10 0 0 0-.66 3l3.464 2A6 6 0 0 1 5 2.804L3-.66zM8-2A10 10 0 0 0 3-.66l2 3.464A6 6 0 0 1 8 2v-4zm5 1.34A10 10 0 0 0 8-2v4a6 6 0 0 1 3 .804L13-.66zM16.66 3A10 10 0 0 0 13-.66l-2 3.464A6 6 0 0 1 13.196 5l3.464-2zM18 8a10 10 0 0 0-1.34-5l-3.464 2A6 6 0 0 1 14 8h4zm-1.34 5A10 10 0 0 0 18 8h-4a6 6 0 0 1-.804 3l3.464 2zm-4.464-.268l1.732 1 2-3.464-1.732-1-2 3.464zM12 8a4 4 0 0 1-.536 2l3.464 2A8 8 0 0 0 16 8h-4zm-.536-2A4 4 0 0 1 12 8h4a8 8 0 0 0-1.072-4l-3.464 2zM10 4.536A4 4 0 0 1 11.464 6l3.464-2A8 8 0 0 0 12 1.072l-2 3.464zM8 4a4 4 0 0 1 2 .536l2-3.464A8 8 0 0 0 8 0v4z" mask="url(#a)"></path><path d="M7.09 9.218l.43-.22.095-.474L8 6.6l.385 1.925.095.474.43.22a2 2 0 1 1-1.82 0z"></path></svg>