<svg xmlns="http://www.w3.org/2000/svg" width="16" height="16" viewBox="0 0 16 16" fill="currentColor"><mask id="a"><path fill-rule="evenodd" clip-rule="evenodd" d="M8 2a6 6 0 0 0-5.196 9l-1.732 1a8 8 0 1 1 13.856 0l-1.732-1A6 6 0 0 0 8 2z"></path></mask><path fill-rule="evenodd" clip-rule="evenodd" d="M8 2a6 6 0 0 0-5.196 9l-1.732 1a8 8 0 1 1 13.856 0l-1.732-1A6 6 0 0 0 8 2z"></path><path d="M5 2.804l1 1.732-1-1.732zM8 2v2-2zM2.804 5l1.732 1-1.732-1zm0 6l1 1.732 1.732-1-1-1.732-1.732 1zm-1.732 1L-.66 13l1 1.732 1.732-1-1-1.732zm0-8L-.66 3l1.732 1zM4 1.072L3-.66l1 1.732zm8 0l-1 1.732 1-1.732zM14.928 4l-1.732 1 1.732-1zm0 8l-1 1.732 1.732 1 1-1.732-1.732-1zm-1.732-1l-1.732-1-1 1.732 1.732 1 1-1.732zm0-6l1.732-1-1.732 1zM11 2.804l1-1.732-1 1.732zM6 4.536A4 4 0 0 1 8 4V0a8 8 0 0 0-4 1.072l2 3.464zM4.536 6A4 4 0 0 1 6 4.536L4 1.072A8 8 0 0 0 1.072 4l3.464 2zM4 8a4 4 0 0 1 .536-2L1.072 4A8 8 0 0 0 0 8h4zm.536 2A4 4 0 0 1 4 8H0a8 8 0 0 0 1.072 4l3.464-2zm-2.464 3.732l1.732-1-2-3.464-1.732 1 2 3.464zM-2 8a10 10 0 0 0 1.34 5l3.464-2A6 6 0 0 1 2 8h-4zm1.34-5A10 10 0 0 0-2 8h4a6 6 0 0 1 .804-3L-.66 3zM3-.66A10 10 0 0 0-.66 3l3.464 2A6 6 0 0 1 5 2.804L3-.66zM8-2A10 10 0 0 0 3-.66l2 3.464A6 6 0 0 1 8 2v-4zm5 1.34A10 10 0 0 0 8-2v4a6 6 0 0 1 3 .804L13-.66zM16.66 3A10 10 0 0 0 13-.66l-2 3.464A6 6 0 0 1 13.196 5l3.464-2zM18 8a10 10 0 0 0-1.34-5l-3.464 2A6 6 0 0 1 14 8h4zm-1.34 5A10 10 0 0 0 18 8h-4a6 6 0 0 1-.804 3l3.464 2zm-4.464-.268l1.732 1 2-3.464-1.732-1-2 3.464zM12 8a4 4 0 0 1-.536 2l3.464 2A8 8 0 0 0 16 8h-4zm-.536-2A4 4 0 0 1 12 8h4a8 8 0 0 0-1.072-4l-3.464 2zM10 4.536A4 4 0 0 1 11.464 6l3.464-2A8 8 0 0 0 12 1.072l-2 3.464zM8 4a4 4 0 0 1 2 .536l2-3.464A8 8 0 0 0 8 0v4z" mask="url(#a)"></path><path d="M10 11a2 2 0 1 1-4 0 2 2 0 0 1 4 0z"></path><mask id="b"><path fill-rule="evenodd" clip-rule="evenodd" d="M8 4a.61.61 0 0 0-.598.49l-.768 3.838a3 3 0 1 0 2.732 0L8.598 4.49A.61.61 0 0 0 8 4zm1 7a1 1 0 1 1-2 0 1 1 0 0 1 2 0z"></path></mask><path fill-rule="evenodd" clip-rule="evenodd" d="M8 4a.61.61 0 0 0-.598.49l-.768 3.838a3 3 0 1 0 2.732 0L8.598 4.49A.61.61 0 0 0 8 4zm1 7a1 1 0 1 1-2 0 1 1 0 0 1 2 0z"></path><path d="M7.402 4.49L5.44 4.098l1.96.392zm-.768 3.838l.912 1.78.86-.44.19-.948-1.962-.392zm2.732 0l-1.962.392.19.948.86.44.912-1.78zM8.598 4.49l1.961-.392-1.96.392zm.765.393A1.39 1.39 0 0 1 8 6V2a2.61 2.61 0 0 0-2.56 2.098l3.923.785zM8.596 8.72l.767-3.837-3.922-.785-.768 3.838 3.923.784zM5.723 6.548A5 5 0 0 0 3 11h4a1 1 0 0 1 .546-.892l-1.823-3.56zM3 11a5 5 0 0 0 5 5v-4a1 1 0 0 1-1-1H3zm5 5a5 5 0 0 0 5-5H9a1 1 0 0 1-1 1v4zm5-5a5 5 0 0 0-2.723-4.452l-1.823 3.56A1 1 0 0 1 9 11h4zM6.637 4.883l.767 3.837 3.923-.784-.768-3.838-3.922.785zM8 6a1.39 1.39 0 0 1-1.363-1.117l3.922-.785A2.61 2.61 0 0 0 8 2v4zm0 8a3 3 0 0 0 3-3H7a1 1 0 0 1 1-1v4zm-3-3a3 3 0 0 0 3 3v-4a1 1 0 0 1 1 1H5zm3-3a3 3 0 0 0-3 3h4a1 1 0 0 1-1 1V8zm3 3a3 3 0 0 0-3-3v4a1 1 0 0 1-1-1h4z" mask="url(#b)"></path></svg>