<svg xmlns="http://www.w3.org/2000/svg" width="16" height="16" viewBox="0 0 16 16" fill="currentColor"><path d="M3 2a1 1 0 0 0-1 1v4a1 1 0 0 0 1 1h2v.25c0 .829-.015 1.236-.17 1.6-.137.322-.447.732-1.36 1.302a1 1 0 1 0 1.06 1.696c1.088-.68 1.777-1.364 2.14-2.213C7 9.858 7 9.05 7 8.336V3a1 1 0 0 0-1-1H3zM10 2a1 1 0 0 0-1 1v4a1 1 0 0 0 1 1h2v.25c0 .829-.015 1.236-.17 1.6-.137.322-.447.732-1.36 1.302a1 1 0 1 0 1.06 1.696c1.088-.68 1.777-1.364 2.14-2.213C14 9.858 14 9.05 14 8.336V3a1 1 0 0 0-1-1h-3z"></path></svg>