<svg xmlns="http://www.w3.org/2000/svg" width="16" height="16" viewBox="0 0 16 16" fill="currentColor"><path fill-rule="evenodd" clip-rule="evenodd" d="M8 13c1.84 0 3.449-.993 4.318-2.478a1 1 0 0 1 1.726 1.01A6.998 6.998 0 0 1 8 15a6.99 6.99 0 0 1-5.538-2.718 1 1 0 0 1 1.581-1.224A4.99 4.99 0 0 0 8 13z"></path><path d="M14.603 7.482l.985-3.751a.5.5 0 0 0-.69-.583L10.44 5.174a.5.5 0 0 0-.016.903l3.473 1.726a.5.5 0 0 0 .706-.321zM1.397 8.518L.412 12.27a.5.5 0 0 0 .69.583l4.458-2.026a.5.5 0 0 0 .016-.903L2.103 8.197a.5.5 0 0 0-.706.321z"></path><path fill-rule="evenodd" clip-rule="evenodd" d="M8 3a4.998 4.998 0 0 0-4.34 2.514 1 1 0 1 1-1.734-.996A6.998 6.998 0 0 1 8 1a6.99 6.99 0 0 1 5.538 2.718 1 1 0 0 1-1.582 1.224A4.99 4.99 0 0 0 8 3z"></path></svg>