<svg xmlns="http://www.w3.org/2000/svg" width="16" height="16" viewBox="0 0 16 16" fill="currentColor"><path fill-rule="evenodd" clip-rule="evenodd" d="M15.73 10.071l-1.933-.516A6.01 6.01 0 0 0 14 8c0-.54-.07-1.061-.203-1.555l1.932-.516C15.906 6.589 16 7.284 16 8a8.01 8.01 0 0 1-.27 2.071zM14.93 4l-1.732 1.002A6.04 6.04 0 0 0 11 2.801l1.002-1.73a8.039 8.039 0 0 1 2.928 2.928zM10.07.271l-.516 1.932A6.011 6.011 0 0 0 8 2c-.54 0-1.061.07-1.555.203L5.93.27A8.011 8.011 0 0 1 8 0c.716 0 1.41.094 2.071.27zM4 1.07L5.001 2.8a6.04 6.04 0 0 0-2.2 2.2l-1.73-1.002a8.04 8.04 0 0 1 2.928-2.928zM.271 5.929A8.01 8.01 0 0 0 0 8c0 .716.094 1.41.27 2.071l1.933-.516A6.011 6.011 0 0 1 2 8c0-.54.07-1.061.203-1.555L.27 5.93zM1.07 12l1.73-1.002a6.04 6.04 0 0 0 2.2 2.2l-1.002 1.73a8.039 8.039 0 0 1-2.928-2.928zm4.858 3.728l.516-1.932A6.01 6.01 0 0 0 8 14c.54 0 1.061-.07 1.555-.203l.516 1.932A8.01 8.01 0 0 1 8 16a8.01 8.01 0 0 1-2.071-.27zm6.072-.8a8.038 8.038 0 0 0 2.928-2.928l-1.73-1.002a6.04 6.04 0 0 1-2.2 2.2l1.002 1.73z"></path></svg>