<svg xmlns="http://www.w3.org/2000/svg" width="16" height="16" viewBox="0 0 16 16" fill="currentColor"><path d="M5 7c.16-.003 3 0 3 0S6.402 5.99 6.131 5.51A1 1 0 0 1 6 5c0-.2.267-1 2-1 .827 0 1.425.206 1.803.394a2.703 2.703 0 0 1 .492.316l.008.007a1 1 0 0 0 1.403-1.425l-.002-.002-.003-.003-.029-.028a3.404 3.404 0 0 0-.26-.215 4.694 4.694 0 0 0-.715-.438C10.075 2.294 9.173 2 8 2 5.733 2 4 3.2 4 5c0 .554.016 1.018.388 1.49C4.581 6.735 5 7 5 7zM2.5 8a.5.5 0 0 0 0 1h5.26l.527.268c.588.312 1.032.595 1.329.896.271.276.384.53.384.836 0 .2-.267 1-2 1-.827 0-1.425-.206-1.803-.394a2.702 2.702 0 0 1-.492-.316l-.008-.007a1 1 0 0 0-1.403 1.425l.002.002.003.003.008.008.02.02.061.055a4.697 4.697 0 0 0 .914.599C5.926 13.704 6.828 14 8 14c2.267 0 4-1.2 4-3 0-.815-.304-1.474-.742-2H13.5a.5.5 0 0 0 0-1h-11z"></path></svg>