<svg xmlns="http://www.w3.org/2000/svg" width="16" height="16" viewBox="0 0 16 16" fill="currentColor"><path fill-rule="evenodd" clip-rule="evenodd" d="M0 6a2 2 0 0 1 2-2h12a2 2 0 0 1 2 2v2a1 1 0 0 1-1 1H1a1 1 0 0 1-1-1V6zm14 0H2v1h12V6zM3 10v3h10v-3h2v3a2 2 0 0 1-2 2H3a2 2 0 0 1-2-2v-3h2z"></path><path fill-rule="evenodd" clip-rule="evenodd" d="M4 2a1 1 0 0 1 1-1h6a1 1 0 0 1 1 1v3a1 1 0 0 1-1 1H5a1 1 0 0 1-1-1V2zm2 1v1h4V3H6z"></path><path d="M4 8a1 1 0 0 1 2 0v1a1 1 0 0 1-2 0V8zM10 8a1 1 0 1 1 2 0v1a1 1 0 1 1-2 0V8z"></path></svg>