<svg xmlns="http://www.w3.org/2000/svg" width="16" height="16" viewBox="0 0 16 16" fill="currentColor"><path fill-rule="evenodd" clip-rule="evenodd" d="M8 14c-1.893 0-3.5.37-4.343.949a1.506 1.506 0 0 0-.65 1.007.794.794 0 0 0-.007.06v.003-.017S3 16 2 16l-1-.001V15.956l.004-.072a3.387 3.387 0 0 1 .192-.882 3.505 3.505 0 0 1 1.328-1.701C3.864 12.38 5.964 12 8 12c2.035 0 4.136.38 5.476 1.301a3.505 3.505 0 0 1 1.496 2.368 2.78 2.78 0 0 1 .027.287v.025l.001.01v.007S15 16 14 16h-1v.016a1.39 1.39 0 0 0-.076-.33c-.08-.22-.24-.502-.581-.737C11.5 14.37 9.893 14 8 14zM9.149 8.054C9.653 7.274 10 6.154 10 5c0-1.425-.363-2.143-.665-2.482C9.055 2.203 8.637 2 8 2s-1.054.203-1.335.518C6.363 2.857 6 3.575 6 5c0 1.154.347 2.273.851 3.054C7.383 8.877 7.845 9 8 9c.155 0 .617-.123 1.149-.946zM12 5c0 3.038-1.79 6-4 6S4 8.038 4 5c0-3.5 1.79-5 4-5s4 1.5 4 5z"></path></svg>