<svg xmlns="http://www.w3.org/2000/svg" width="16" height="16" viewBox="0 0 16 16" fill="currentColor"><path d="M12.196 10.902A3.566 3.566 0 0 1 13.857 13H16c0-1.175-.8-2.2-1.94-2.485l-.3-.075c-.16-.04-.317-.09-.469-.149a2.924 2.924 0 0 1-1.095.61z"></path><path fill-rule="evenodd" clip-rule="evenodd" d="M7.317 7.314C7.723 6.71 8 5.852 8 5c0-.817-.252-1.31-.498-1.579C7.26 3.157 6.925 3 6.5 3c-.425 0-.76.157-1.002.421C5.252 3.69 5 4.183 5 5c0 .852.277 1.711.683 2.314.43.637.768.686.817.686.049 0 .387-.05.817-.686zM6.5 10C8.433 10 10 7.485 10 5S8.433 1 6.5 1 3 2.515 3 5c0 2.485 1.567 5 3.5 5z"></path><path d="M9.837 8.941C10.28 9.581 10.862 10 11.5 10c1.38 0 2.5-1.956 2.5-3.889C14 4.178 12.88 3 11.5 3c-.274 0-.537.046-.783.136C10.902 3.705 11 4.33 11 5c0 1.417-.436 2.84-1.163 3.941z"></path><path fill-rule="evenodd" clip-rule="evenodd" d="M6.5 13c-1.663 0-3.055.469-3.793 1.207-.326.326-.512.76-.612 1.16a3.419 3.419 0 0 0-.095.638v-.003C2 16 2 16 1 16H0v-.039l.003-.073a5.411 5.411 0 0 1 .152-1.006c.15-.6.464-1.415 1.138-2.09C2.555 11.533 4.563 11 6.5 11c1.938 0 3.945.531 5.207 1.793.674.674.988 1.49 1.138 2.09A5.4 5.4 0 0 1 13 15.96v.024l.001.009v.005L12 16h-1v-.021a3.42 3.42 0 0 0-.094-.611c-.101-.4-.287-.835-.613-1.16C9.555 13.467 8.163 13 6.5 13zM2 16.005v0z"></path></svg>